# xmcd CD database file
#
# Track frame offsets:
#	150
#	15508
#	24575
#	33006
#	45512
#	54566
#	63535
#	73622
#	87187
#	100889
#	109641
#	126090
#	135439
#	144314
#
# Disc length: 2300 seconds
#
# Revision: 0
# Processed by: cddbd v1.5.1PL0 Copyright (c) Steve Scherf et al.
# Submitted via: CDex 1.51
#
DISCID=b008fa0e
DTITLE=Patti Page - Tennessee Waltz
DYEAR=2001
DGENRE=Country
TTITLE0=It Started All Over Again
TTITLE1=Oklahoma Blues
TTITLE2=All I do is dream of you
TTITLE3=Don't Blame Me
TTITLE4=I'll never smile again
TTITLE5=It all depends on you
TTITLE6=Goody Goodbye
TTITLE7=Mockin' Bird Hill
TTITLE8=Tennesee Waltz
TTITLE9=I Can't get started with you
TTITLE10=Do Nothing Till You Hear From Me
TTITLE11=The Glory of Love
TTITLE12=Let Me Call You Sweetheart
TTITLE13=Medley
EXTD=YEAR: 2001
EXTT0=
EXTT1=
EXTT2=
EXTT3=
EXTT4=
EXTT5=
EXTT6=
EXTT7=
EXTT8=
EXTT9=
EXTT10=
EXTT11=
EXTT12=
EXTT13=
PLAYORDER=
